<svg width="21" height="20" viewBox="0 0 21 20" fill="none" xmlns="http://www.w3.org/2000/svg">
<g id="Group">
<path id="Vector" fill-rule="evenodd" clip-rule="evenodd" d="M8.7601 16.6916H1.40894C0.925936 16.6916 0.533936 16.2996 0.533936 15.8166C0.533936 15.3336 0.925936 14.9416 1.40894 14.9416H8.7601C9.2431 14.9416 9.6351 15.3336 9.6351 15.8166C9.6351 16.2996 9.2431 16.6916 8.7601 16.6916" fill="#212121"/>
<path id="Vector_2" fill-rule="evenodd" clip-rule="evenodd" d="M19.3894 5.38379H12.0394C11.5564 5.38379 11.1644 4.99179 11.1644 4.50879C11.1644 4.02579 11.5564 3.63379 12.0394 3.63379H19.3894C19.8724 3.63379 20.2644 4.02579 20.2644 4.50879C20.2644 4.99179 19.8724 5.38379 19.3894 5.38379" fill="#212121"/>
<g id="Mask Group">
<mask id="mask0_1834_87" style="mask-type:luminance" maskUnits="userSpaceOnUse" x="0" y="0" width="8" height="9">
<path id="Vector_3" fill-rule="evenodd" clip-rule="evenodd" d="M0.5 0.833801H7.76343V8.05733H0.5V0.833801Z" fill="white"/>
</mask>
<g mask="url(#mask0_1834_87)">
<path id="Exclude" fill-rule="evenodd" clip-rule="evenodd" d="M4.13159 2.58334C3.09442 2.58334 2.24976 3.41868 2.24976 4.44651C2.24976 5.47318 3.09442 6.30734 4.13159 6.30734C5.16992 6.30734 6.01342 5.47318 6.01342 4.44651C6.01342 3.41868 5.16992 2.58334 4.13159 2.58334M4.13159 8.05734C2.12959 8.05734 0.499756 6.43801 0.499756 4.44651C0.499756 2.45501 2.12959 0.833344 4.13159 0.833344C6.13476 0.833344 7.76342 2.45501 7.76342 4.44651C7.76342 6.43801 6.13476 8.05734 4.13159 8.05734" fill="#212121"/>
</g>
</g>
<path id="Exclude_2" fill-rule="evenodd" clip-rule="evenodd" d="M17.2856 13.9093C16.2473 13.9093 15.4026 14.7447 15.4026 15.7713C15.4026 16.7992 16.2473 17.6333 17.2856 17.6333C18.3228 17.6333 19.1663 16.7992 19.1663 15.7713C19.1663 14.7447 18.3228 13.9093 17.2856 13.9093M17.2856 19.3833C15.2825 19.3833 13.6526 17.7628 13.6526 15.7713C13.6526 13.7798 15.2825 12.1593 17.2856 12.1593C19.2876 12.1593 20.9163 13.7798 20.9163 15.7713C20.9163 17.7628 19.2876 19.3833 17.2856 19.3833" fill="#212121"/>
</g>
</svg>
