<svg width="14" height="14" viewBox="0 0 14 14" fill="none" xmlns="http://www.w3.org/2000/svg">
<path fill-rule="evenodd" clip-rule="evenodd" d="M7.06669 13.3333C3.38669 13.3333 0.400024 10.3533 0.400024 6.66667C0.400024 2.98667 3.38669 0 7.06669 0C10.7534 0 13.7334 2.98667 13.7334 6.66667C13.7334 10.3533 10.7534 13.3333 7.06669 13.3333ZM9.19336 9.14C9.27336 9.18667 9.36002 9.21333 9.45336 9.21333C9.62002 9.21333 9.78669 9.12667 9.88002 8.96667C10.02 8.73333 9.94669 8.42667 9.70669 8.28L7.33336 6.86667V3.78667C7.33336 3.50667 7.10669 3.28667 6.83336 3.28667C6.56002 3.28667 6.33336 3.50667 6.33336 3.78667V7.15333C6.33336 7.32667 6.42669 7.48667 6.58002 7.58L9.19336 9.14Z" fill="url(#paint0_linear_1874_20036)"/>
<defs>
<linearGradient id="paint0_linear_1874_20036" x1="13.7334" y1="13.3333" x2="-2.13211" y2="8.73329" gradientUnits="userSpaceOnUse">
<stop stop-color="#584CF4"/>
<stop offset="1" stop-color="#7369F8"/>
</linearGradient>
</defs>
</svg>
