<svg width="16" height="16" viewBox="0 0 16 16" fill="none" xmlns="http://www.w3.org/2000/svg">
<g id="Iconly/Bold/Time Circle">
<g id="Time Circle">
<path id="Time Circle_2" fill-rule="evenodd" clip-rule="evenodd" d="M7.66503 14.0526C4.13913 14.0526 1.27753 11.1974 1.27753 7.66506C1.27753 4.13916 4.13913 1.27756 7.66503 1.27756C11.1973 1.27756 14.0525 4.13916 14.0525 7.66506C14.0525 11.1974 11.1973 14.0526 7.66503 14.0526ZM9.70264 10.0348C9.77929 10.0795 9.86233 10.1051 9.95175 10.1051C10.1114 10.1051 10.2711 10.0221 10.3606 9.86875C10.4947 9.64519 10.4244 9.35136 10.1945 9.21084L7.92053 7.85669V4.90566C7.92053 4.63739 7.70335 4.4266 7.44146 4.4266C7.17958 4.4266 6.9624 4.63739 6.9624 4.90566V8.13135C6.9624 8.29743 7.05183 8.45073 7.19874 8.54015L9.70264 10.0348Z" fill="url(#paint0_linear_1862_20158)"/>
</g>
</g>
<defs>
<linearGradient id="paint0_linear_1862_20158" x1="14.0525" y1="14.0526" x2="-1.14858" y2="9.64514" gradientUnits="userSpaceOnUse">
<stop stop-color="#584CF4"/>
<stop offset="1" stop-color="#7369F8"/>
</linearGradient>
</defs>
</svg>
