<svg width="21" height="22" viewBox="0 0 21 22" fill="none" xmlns="http://www.w3.org/2000/svg">
<g id="Group">
<path id="Vector" d="M7.55721 19.7714V16.7047C7.55719 15.9246 8.19311 15.2908 8.98101 15.2856H11.8671C12.6587 15.2856 13.3005 15.9209 13.3005 16.7047V16.7047V19.7809C13.3003 20.4432 13.8342 20.9845 14.503 21H16.4271C18.3451 21 19.9 19.4607 19.9 17.5618V17.5618V8.83784C19.8898 8.09083 19.5355 7.38935 18.938 6.93303L12.3577 1.6853C11.2049 0.771566 9.5662 0.771566 8.41341 1.6853L1.86202 6.94256C1.26225 7.39702 0.907381 8.09967 0.899994 8.84736V17.5618C0.899994 19.4607 2.45487 21 4.37291 21H6.29696C6.98235 21 7.53797 20.4499 7.53797 19.7714V19.7714" stroke="#9E9E9E" stroke-width="1.5" stroke-linecap="round" stroke-linejoin="round"/>
</g>
</svg>
